<svg width="32" height="32" viewBox="0 0 32 32" fill="none" xmlns="http://www.w3.org/2000/svg">
<path d="M19.4559 9.14125C19.3941 9.09031 18.7625 8.58156 18 7.96844V7C18 6.44781 17.5522 6 17 6H15.5478C15.4187 5.89656 15.3069 5.8075 15.2291 5.74563C14.5384 5.19344 13.3575 4 12 4C10.6497 4 9.48 5.17875 8.77063 5.74563C8.69156 5.80844 8.58 5.89781 8.45188 6H7C6.44781 6 6 6.44781 6 7V7.96813C5.23375 8.58406 4.60156 9.09344 4.5475 9.13781C4.37636 9.27849 4.23851 9.45534 4.14384 9.65563C4.04918 9.85593 4.00005 10.0747 4 10.2962V18.5C4 19.3284 4.67156 20 5.5 20H18.5C19.3284 20 20 19.3284 20 18.5V10.2972C20 9.85 19.8006 9.42594 19.4559 9.14125V9.14125ZM12 5C12.6803 5 13.395 5.5225 13.9731 6H10.0281C10.6072 5.52281 11.3225 5 12 5ZM7 7H17V12.4172C15.9897 13.2297 14.9594 14.0559 14.2941 14.5841C13.7675 15.0038 12.7256 16.0116 12 16C11.2747 16.0119 10.2325 15.0037 9.70594 14.5837C9.04062 14.0556 8.01094 13.2297 7 12.4169V7V7ZM5 10.2962C5 10.1462 5.06656 10.0053 5.1825 9.91C5.22125 9.87812 5.54563 9.61687 6 9.25125V11.6122C5.63969 11.3222 5.29656 11.0456 5 10.8066V10.2962V10.2962ZM19 18.5C19 18.7756 18.7756 19 18.5 19H5.5C5.22438 19 5 18.7756 5 18.5V12.0909C6.33594 13.1672 8.10344 14.5884 9.08375 15.3666C9.72406 15.8778 10.8569 17.0081 12 16.9997C13.1391 17.0078 14.2584 15.8916 14.9159 15.3666C15.8975 14.5875 17.6638 13.1669 19 12.0906V18.5ZM19 10.8066C18.6994 11.0487 18.3666 11.3172 18 11.6125V9.25187C18.4512 9.615 18.775 9.87594 18.8188 9.91187C18.9341 10.0072 19 10.1475 19 10.2972V10.8066V10.8066ZM11.1534 11.5181L12.5597 11.94C12.7209 11.9884 12.8337 12.1519 12.8337 12.3378C12.8337 12.565 12.6681 12.75 12.465 12.75H11.5866C11.4441 12.75 11.3066 12.7097 11.1859 12.6337C11.0847 12.5703 10.9559 12.5741 10.8694 12.6566L10.5022 13.0069C10.3919 13.1122 10.3981 13.2947 10.52 13.3862C10.8044 13.5997 11.1475 13.7228 11.5003 13.7409V14.25C11.5003 14.3881 11.6122 14.5 11.7503 14.5H12.2503C12.3884 14.5 12.5003 14.3881 12.5003 14.25V13.7463C13.2384 13.7266 13.8337 13.1044 13.8337 12.3378C13.8337 11.7137 13.4281 11.1562 12.8469 10.9819L11.4406 10.56C11.2794 10.5116 11.1666 10.3481 11.1666 10.1622C11.1666 9.935 11.3322 9.75 11.5353 9.75H12.4137C12.5562 9.75 12.6937 9.79031 12.8144 9.86625C12.9156 9.92969 13.0444 9.92594 13.1309 9.84344L13.4981 9.49312C13.6084 9.38781 13.6022 9.20531 13.4803 9.11375C13.1959 8.90031 12.8528 8.77719 12.5 8.75906V8.25C12.5 8.11187 12.3881 8 12.25 8H11.75C11.6119 8 11.5 8.11187 11.5 8.25V8.75375C10.7619 8.77344 10.1666 9.39594 10.1666 10.1622C10.1666 10.7863 10.5722 11.3438 11.1534 11.5181V11.5181Z" fill="#1AAAB2"/>
</svg>
