<svg width="32" height="32" viewBox="0 0 32 32" fill="none" xmlns="http://www.w3.org/2000/svg">
<path d="M17.5594 7.06055L14.9375 4.43867C14.6562 4.15742 14.275 3.99805 13.8781 3.99805H7.5C6.67188 4.00117 6 4.67305 6 5.50117V18.5012C6 19.3293 6.67188 20.0012 7.5 20.0012H16.5C17.3281 20.0012 18 19.3293 18 18.5012V8.12305C18 7.72617 17.8406 7.3418 17.5594 7.06055ZM16.8531 7.76992C16.9187 7.83555 16.9625 7.91367 16.9844 8.00117H14V5.0168C14.0875 5.03867 14.1656 5.08242 14.2312 5.14805L16.8531 7.76992ZM16.5 19.0012H7.5C7.225 19.0012 7 18.7762 7 18.5012V5.50117C7 5.22617 7.225 5.00117 7.5 5.00117H13V8.25117C13 8.6668 13.3344 9.00117 13.75 9.00117H17V18.5012C17 18.7762 16.775 19.0012 16.5 19.0012ZM15 11.3762V11.6262C15 11.8324 14.8312 12.0012 14.625 12.0012H9.375C9.16875 12.0012 9 11.8324 9 11.6262V11.3762C9 11.1699 9.16875 11.0012 9.375 11.0012H14.625C14.8312 11.0012 15 11.1699 15 11.3762ZM15 13.3762V13.6262C15 13.8324 14.8312 14.0012 14.625 14.0012H9.375C9.16875 14.0012 9 13.8324 9 13.6262V13.3762C9 13.1699 9.16875 13.0012 9.375 13.0012H14.625C14.8312 13.0012 15 13.1699 15 13.3762ZM15 15.3762V15.6262C15 15.8324 14.8312 16.0012 14.625 16.0012H9.375C9.16875 16.0012 9 15.8324 9 15.6262V15.3762C9 15.1699 9.16875 15.0012 9.375 15.0012H14.625C14.8312 15.0012 15 15.1699 15 15.3762Z" fill="#464646"/>
</svg>
