<svg width="32" height="32" viewBox="0 0 32 32" fill="none" xmlns="http://www.w3.org/2000/svg">
<path d="M14.5 15.5208V10.5C14.5 10.0158 14.2694 9.58441 13.9122 9.30997C14.5763 8.75925 15 7.92816 15 7C15 5.34578 13.6542 4 12 4C10.3458 4 9 5.34578 9 7C9 7.76762 9.28981 8.46887 9.76575 9H9.75C8.92291 9 8.25 9.67291 8.25 10.5V12C8.25 12.7419 8.79147 13.3598 9.5 13.4792V15.5208C8.79147 15.6402 8.25 16.2581 8.25 17V18.5C8.25 19.3271 8.92291 20 9.75 20H14.25C15.0771 20 15.75 19.3271 15.75 18.5V17C15.75 16.2581 15.2085 15.6402 14.5 15.5208V15.5208ZM12 5C13.1046 5 14 5.89544 14 7C14 8.10456 13.1046 9 12 9C10.8954 9 10 8.10456 10 7C10 5.89544 10.8954 5 12 5ZM14.75 18.5C14.75 18.7762 14.5262 19 14.25 19H9.75C9.47384 19 9.25 18.7762 9.25 18.5V17C9.25 16.7238 9.47384 16.5 9.75 16.5H10.5V12.5H9.75C9.47384 12.5 9.25 12.2762 9.25 12V10.5C9.25 10.2238 9.47384 10 9.75 10H13C13.2762 10 13.5 10.2238 13.5 10.5V16.5H14.25C14.5262 16.5 14.75 16.7238 14.75 17V18.5Z" fill="#464646"/>
</svg>
