<svg width="46" height="36" viewBox="0 0 46 36" fill="none" xmlns="http://www.w3.org/2000/svg">
<path d="M40.5 0.5H5.5C2.74219 0.5 0.5 2.74219 0.5 5.5V30.5C0.5 33.2578 2.74219 35.5 5.5 35.5H40.5C43.2578 35.5 45.5 33.2578 45.5 30.5V5.5C45.5 2.74219 43.2578 0.5 40.5 0.5ZM43 30.5C43 31.875 41.875 33 40.5 33H5.5C4.125 33 3 31.875 3 30.5V5.5C3 4.125 4.125 3 5.5 3H40.5C41.875 3 43 4.125 43 5.5V30.5ZM37.375 20.5H28.625C28.2812 20.5 28 20.7812 28 21.125V22.375C28 22.7188 28.2812 23 28.625 23H37.375C37.7188 23 38 22.7188 38 22.375V21.125C38 20.7812 37.7188 20.5 37.375 20.5ZM37.375 15.5H28.625C28.2812 15.5 28 15.7812 28 16.125V17.375C28 17.7188 28.2812 18 28.625 18H37.375C37.7188 18 38 17.7188 38 17.375V16.125C38 15.7812 37.7188 15.5 37.375 15.5ZM37.375 10.5H28.625C28.2812 10.5 28 10.7812 28 11.125V12.375C28 12.7188 28.2812 13 28.625 13H37.375C37.7188 13 38 12.7188 38 12.375V11.125C38 10.7812 37.7188 10.5 37.375 10.5ZM16.75 20.5C20.2031 20.5 23 17.7031 23 14.25C23 10.7969 20.2031 8 16.75 8C13.2969 8 10.5 10.7969 10.5 14.25C10.5 17.7031 13.2969 20.5 16.75 20.5ZM16.75 10.5C18.8203 10.5 20.5 12.1797 20.5 14.25C20.5 16.3203 18.8203 18 16.75 18C14.6797 18 13 16.3203 13 14.25C13 12.1797 14.6797 10.5 16.75 10.5ZM20.4062 21.75C18.8828 21.75 18.5 22.2969 16.75 22.2969C15 22.2969 14.6172 21.75 13.0938 21.75C11.4375 21.75 9.82812 22.4844 8.89062 23.8906C8.32812 24.7266 8 25.7344 8 26.8203V28.625C8 28.9688 8.28125 29.25 8.625 29.25H9.875C10.2188 29.25 10.5 28.9688 10.5 28.625V26.8203C10.5 26.2734 10.6641 25.7422 10.9688 25.2891C11.4062 24.6406 12.2031 24.2578 13.1016 24.2578C14.0703 24.2578 14.7266 24.8047 16.7578 24.8047C18.7812 24.8047 19.4375 24.2578 20.4141 24.2578C21.3125 24.2578 22.1094 24.6484 22.5469 25.2891C22.8516 25.7422 23.0156 26.2734 23.0156 26.8203V28.625C23.0156 28.9688 23.2969 29.25 23.6406 29.25H24.8906C25.2344 29.25 25.5156 28.9688 25.5156 28.625V26.8203C25.5156 25.7344 25.1875 24.7266 24.625 23.8906C23.6641 22.4844 22.0547 21.75 20.4062 21.75Z" fill="#1AAAB2"/>
</svg>
