<svg width="32" height="32" viewBox="0 0 32 32" fill="none" xmlns="http://www.w3.org/2000/svg">
<path d="M21 4H8C7.44781 4 7 4.44781 7 5V8C5.34312 8 4 9.34312 4 11C4 12.6569 5.34312 14 7 14C8.65688 14 10 12.6569 10 11C10 9.69562 9.1625 8.59688 8 8.18375V5H21V16H11.5419C11.5234 15.9706 11.5097 15.9387 11.4903 15.91C10.9513 15.1094 10.0319 14.6878 9.08719 14.6878C8.21875 14.6881 8.00063 15 7 15C6.00094 15 5.78281 14.6881 4.91281 14.6881C3.96812 14.6881 3.04875 15.1094 2.50969 15.9103C2.18781 16.3881 2 16.9638 2 17.5834V18.75C2 19.4403 2.55969 20 3.25 20H10.75C11.4403 20 12 19.4403 12 18.75V17.5834C12 17.3831 11.9737 17.1897 11.9362 17H21C21.5522 17 22 16.5522 22 16V5C22 4.44781 21.5522 4 21 4ZM9 11C9 12.1028 8.10281 13 7 13C5.89719 13 5 12.1028 5 11C5 9.89719 5.89719 9 7 9C8.10281 9 9 9.89719 9 11ZM11 18.75C11 18.8878 10.8878 19 10.75 19H3.25C3.11219 19 3 18.8878 3 18.75V17.5834C3 17.1838 3.11719 16.7981 3.33906 16.4688C3.66812 15.98 4.25625 15.6881 4.91281 15.6881C5.59406 15.6881 5.85 16 7 16C8.14969 16 8.40656 15.6881 9.08719 15.6881C9.74344 15.6881 10.3319 15.98 10.6609 16.4688C10.8828 16.7981 11 17.1838 11 17.5834V18.75V18.75ZM12.5819 8.77156C12.2887 8.47844 11.8144 8.47844 11.5212 8.77156L10.7247 9.56812C10.8672 9.93437 10.9528 10.3234 10.9812 10.7256L12.0516 9.65531L14.0216 11.625C14.1681 11.7716 14.3594 11.8444 14.5519 11.8444C14.7444 11.8444 14.9356 11.7716 15.0822 11.625L16.925 9.78219L17.9637 10.8209C18.0875 10.9447 18.2394 11 18.3888 11C18.7009 11 19.0003 10.7575 19.0003 10.3916V7.40469C19.0003 7.18125 18.8191 7 18.5956 7H15.6088C15.0678 7 14.7969 7.65406 15.1794 8.03656L16.2181 9.07531L14.5522 10.7413L12.5819 8.77156V8.77156ZM18 8V9.44312L16.5569 8H18Z" fill="#464646"/>
</svg>
